Coordinates
version=1
nRows=5
nColumns=46
inDegrees=yes

Units are S.I. units (second, meters, Newtons, ...)
Angles are in degrees.

endheader
time	pelvis_tilt	pelvis_list	pelvis_rotation	pelvis_tx	pelvis_ty	pelvis_tz	bb_angle	bb_tx	bb_ty	bb_tz	hip_flexion_r	hip_adduction_r	hip_rotation_r	knee_angle_r	knee_angle_r_beta	ankle_angle_r	subtalar_angle_r	mtp_angle_r	crank_angle_r	hip_flexion_l	hip_adduction_l	hip_rotation_l	knee_angle_l	knee_angle_l_beta	ankle_angle_l	subtalar_angle_l	mtp_angle_l	crank_angle_l	lumbar_extension	lumbar_bending	lumbar_rotation	arm_flex_r	arm_add_r	arm_rot_r	elbow_flex_r	pro_sup_r	wrist_flex_r	wrist_dev_r	arm_flex_l	arm_add_l	arm_rot_l	elbow_flex_l	pro_sup_l	wrist_flex_l	wrist_dev_l
      2.50000000	    -23.29527701	     -0.28719912	     -2.26351292	      0.06124323	      0.99096788	     -0.21002233	      0.00000000	      0.50000000	      0.00000000	      0.25000000	     94.12427072	     -8.95748068	     -4.96784338	     85.35672599	      1.48975591	      6.91273589	      1.05292541	      0.00000000	      0.00000000	     60.51371872	    -12.00645484	     -3.94043901	     75.35905026	      1.31526355	     -2.94654324	     -7.30283289	      0.00000000	      0.00000000	    -39.94212630	     -0.40438037	      0.71043184	     88.14213311	     -3.90975963	     35.58697269	     30.27737730	     39.98812915	      0.00000000	      0.00000000	     83.14225872	    -14.55640990	     29.62232257	     41.11647688	     42.45220548	      0.00000000	      0.00000000
      2.50500000	    -23.49399665	     -0.31673017	     -2.31439521	      0.06115343	      0.99056447	     -0.20990001	      0.00000000	      0.50000000	      0.00000000	      0.25000000	     94.39824491	     -8.88036493	     -4.98943808	     85.44039103	      1.49121614	      6.83283859	      0.88635683	      0.00000000	      0.00000000	     60.71337786	    -12.07734377	     -3.92112596	     75.33656710	      1.31487114	     -2.76313193	     -7.08101726	      0.00000000	      0.00000000	    -39.91327145	     -0.40766464	      0.74725811	     87.47766145	     -4.33833711	     33.43802979	     33.23061563	     40.45210906	      0.00000000	      0.00000000	     82.48082606	    -14.68574728	     27.71758029	     43.36585810	     42.66975030	      0.00000000	      0.00000000
      2.51000000	    -23.31580562	     -0.32276801	     -2.26781406	      0.06115388	      0.99090018	     -0.20998201	      0.00000000	      0.50000000	      0.00000000	      0.25000000	     94.25229933	     -8.95418485	     -4.99281211	     85.52726825	      1.49273243	      6.86398141	      0.84041676	      0.00000000	      0.00000000	     60.46348354	    -12.00678787	     -3.90171387	     75.19157293	      1.31234052	     -2.86909511	     -7.17190470	      0.00000000	      0.00000000	    -39.91046831	     -0.35318784	      0.73788040	     88.15145925	     -3.66166102	     34.86798360	     30.01897653	     40.05808637	      0.00000000	      0.00000000	     83.15131460	    -14.42182391	     29.29262467	     40.87617481	     42.45422375	      0.00000000	      0.00000000
      2.51500000	    -23.30745357	     -0.32758402	     -2.29188008	      0.06110240	      0.99089305	     -0.20993791	      0.00000000	      0.50000000	      0.00000000	      0.25000000	     94.29186272	     -8.92889116	     -4.98149663	     85.59777054	      1.49396293	      6.88730272	      0.87691073	      0.00000000	      0.00000000	     60.41831932	    -12.02599079	     -3.92376927	     75.11706605	      1.31104013	     -2.87763073	     -7.18501638	      0.00000000	      0.00000000	    -39.93826060	     -0.37045102	      0.80469313	     88.16386140	     -4.15279205	     36.22840527	     30.52627384	     39.51278882	      0.00000000	      0.00000000	     83.27547236	    -14.64650961	     30.27456160	     40.98216717	     42.21017756	      0.00000000	      0.00000000
      2.52000000	    -23.47836928	     -0.24594854	     -2.33769645	      0.06102218	      0.99056210	     -0.20992056	      0.00000000	      0.50000000	      0.00000000	      0.25000000	     94.56377243	     -8.85415452	     -4.84105666	     85.66326750	      1.49510607	      6.79547657	      0.71122032	      0.00000000	      0.00000000	     60.55356855	    -11.99376004	     -3.99428763	     75.07978645	      1.31038948	     -2.72561428	     -7.00128900	      0.00000000	      0.00000000	    -39.88024807	     -0.35826689	      0.79105819	     87.73145480	     -4.37505565	     34.39832824	     32.94452077	     39.93364958	      0.00000000	      0.00000000	     82.38647654	    -14.79772655	     28.56496943	     42.91804507	     42.41173026	      0.00000000	      0.00000000
